# xmcd CD database file
#
# Track frame offsets:
#	150
#	19870
#	40322
#	59977
#
# Disc length: 1069 seconds
#
# Revision: 0
# Processed by: cddbd v1.5PL3 Copyright (c) Steve Scherf et al.
# Submitted via: CDex 1.51
#
DISCID=36042b04
DTITLE=釈由美子 - セカンドチャンス
DYEAR=1999
DGENRE=Pop
TTITLE0=セカンドチャンス
TTITLE1=風のゴンドラ
TTITLE2=セカンドチャンス(Instrumental)
TTITLE3=風のゴンドラ(Instrumental)
EXTD=YEAR: 1999
EXTT0=
EXTT1=
EXTT2=
EXTT3=
PLAYORDER=
